<?xml version="1.0" encoding="UTF-8"?>
<svg width="211px" height="339px" viewBox="0 0 211 339" version="1.1" xmlns="http://www.w3.org/2000/svg" xmlns:xlink="http://www.w3.org/1999/xlink" xmlns:sketch="http://www.bohemiancoding.com/sketch/ns">
    <!-- Generator: Sketch 3.4.2 (15855) - http://www.bohemiancoding.com/sketch -->
    <title>Untitled</title>
    <desc>Created with Sketch.</desc>
    <defs>
        <filter x="-50%" y="-50%" width="200%" height="200%" filterUnits="objectBoundingBox" id="filter-1">
            <feOffset dx="0" dy="0" in="SourceAlpha" result="shadowOffsetOuter1"></feOffset>
            <feGaussianBlur stdDeviation="12.5" in="shadowOffsetOuter1" result="shadowBlurOuter1"></feGaussianBlur>
            <feColorMatrix values="0 0 0 0 0   0 0 0 0 0   0 0 0 0 0  0 0 0 0.35 0" in="shadowBlurOuter1" type="matrix" result="shadowMatrixOuter1"></feColorMatrix>
            <feMerge>
                <feMergeNode in="shadowMatrixOuter1"></feMergeNode>
                <feMergeNode in="SourceGraphic"></feMergeNode>
            </feMerge>
        </filter>
        <filter x="-50%" y="-50%" width="200%" height="200%" filterUnits="objectBoundingBox" id="filter-2">
            <feOffset dx="0" dy="0" in="SourceAlpha" result="shadowOffsetOuter1"></feOffset>
            <feGaussianBlur stdDeviation="12.5" in="shadowOffsetOuter1" result="shadowBlurOuter1"></feGaussianBlur>
            <feColorMatrix values="0 0 0 0 0   0 0 0 0 0   0 0 0 0 0  0 0 0 0.35 0" in="shadowBlurOuter1" type="matrix" result="shadowMatrixOuter1"></feColorMatrix>
            <feMerge>
                <feMergeNode in="shadowMatrixOuter1"></feMergeNode>
                <feMergeNode in="SourceGraphic"></feMergeNode>
            </feMerge>
        </filter>
    </defs>
    <g id="Page-1" stroke="none" stroke-width="1" fill="none" fill-rule="evenodd" sketch:type="MSPage">
        <path d="M69.8292391,79.2545853 C73.6004027,83.2876357 66.9833374,75.5593262 112.141846,138.292908 C125.8184,157.29219 134.882805,172.076236 142.21083,184.205802 C159.079151,212.126756 163.000858,224.286188 166.051116,229.305969 C170.426482,236.506469 185.355469,280.577393 185.355469,280.577393 C185.355469,280.577393 190.892153,299.52742 190.89215,311.498611 C190.892147,323.469801 182.035582,317.805435 179.505828,311.498611 C176.976073,305.191787 171.947997,294.805755 171.947997,294.805755 L141.121033,227.794678 L116.128035,177.629043 L95.4840839,138.292907 L73.6004028,103.115204 C73.6004028,103.115204 63.0288796,86.2760605 62.8871156,81.7833824 C62.7453515,77.2907042 66.0580755,75.2215349 69.8292391,79.2545853 Z" id="Path-1" fill="#FFFFFF" filter="url(#filter-1)" sketch:type="MSShapeGroup"></path>
        <path d="M45.3396912,36.5450211 L37.4215546,59.2814713 C37.4215546,59.2814713 34.2157898,69.6431885 32.2023926,75.6816483 C30.1889954,81.720108 28.9225311,83.3100739 27.3161926,84.3393478 C25.7098541,85.3686218 24.8003235,85.8808975 22.381958,84.4257584 C19.9635925,82.9706192 20.0394745,79.0629272 20.0394745,76.711853 C20.0394745,74.3607788 21.6585693,62.7419205 23.4889832,57.5958023 C25.319397,52.4496841 29.0900883,40.7185211 31.8700867,33.3412628 C34.650085,25.9640045 34.9472193,23.265358 37.8801422,21.4666138 C40.8130651,19.6678696 41.7951807,20.0785141 44.779129,21.323391 C47.7630773,22.5682678 57.8408827,28.1836169 61.4784546,30.1036148 C65.1160265,32.0236127 84.6824469,43.2943718 90.1911621,46.6530838 C95.6998773,50.0117958 98.430575,52.1346042 99.5289789,53.9416034 C100.627383,55.7486026 101.379545,57.0729 99.5289764,59.5309067 C97.6784082,61.9889133 93.623858,60.6041858 91.4137598,59.5309055 C89.2036615,58.4576252 70.1625838,48.7443306 64.1720123,45.819046 C58.1814409,42.8937614 45.3396912,36.5450211 45.3396912,36.5450211 Z" id="Path-2" fill="#FFFFFF" filter="url(#filter-2)" sketch:type="MSShapeGroup"></path>
    </g>
</svg>