<?xml version="1.0" encoding="UTF-8"?>
<svg width="350px" height="350px" viewBox="0 0 350 350" version="1.1" xmlns="http://www.w3.org/2000/svg" xmlns:xlink="http://www.w3.org/1999/xlink" xmlns:sketch="http://www.bohemiancoding.com/sketch/ns">
    <!-- Generator: Sketch 3.4.2 (15855) - http://www.bohemiancoding.com/sketch -->
    <title>Untitled</title>
    <desc>Created with Sketch.</desc>
    <defs></defs>
    <g id="Page-1" stroke="none" stroke-width="1" fill="none" fill-rule="evenodd" sketch:type="MSPage">
        <path d="M117.829239,83.2545853 C121.600403,87.2876357 114.983337,79.5593262 160.141846,142.292908 C173.8184,161.29219 182.882805,176.076236 190.21083,188.205802 C207.079151,216.126756 211.000858,228.286188 214.051116,233.305969 C218.426482,240.506469 233.355469,284.577393 233.355469,284.577393 C233.355469,284.577393 238.892153,303.52742 238.89215,315.498611 C238.892147,327.469801 230.035582,321.805435 227.505828,315.498611 C224.976073,309.191787 219.947997,298.805755 219.947997,298.805755 L189.121033,231.794678 L164.128035,181.629043 L143.484084,142.292907 L121.600403,107.115204 C121.600403,107.115204 111.02888,90.2760605 110.887116,85.7833824 C110.745352,81.2907042 114.058076,79.2215349 117.829239,83.2545853 L117.829239,83.2545853 Z" id="Path-1" fill="#FFFFFF" sketch:type="MSShapeGroup"></path>
        <path d="M93.3396912,40.5450211 L85.4215546,63.2814713 C85.4215546,63.2814713 82.2157898,73.6431885 80.2023926,79.6816483 C78.1889954,85.720108 76.9225311,87.3100739 75.3161926,88.3393478 C73.7098541,89.3686218 72.8003235,89.8808975 70.381958,88.4257584 C67.9635925,86.9706192 68.0394745,83.0629272 68.0394745,80.711853 C68.0394745,78.3607788 69.6585693,66.7419205 71.4889832,61.5958023 C73.319397,56.4496841 77.0900883,44.7185211 79.8700867,37.3412628 C82.650085,29.9640045 82.9472193,27.265358 85.8801422,25.4666138 C88.8130651,23.6678696 89.7951807,24.0785141 92.779129,25.323391 C95.7630773,26.5682678 105.840883,32.1836169 109.478455,34.1036148 C113.116027,36.0236127 132.682447,47.2943718 138.191162,50.6530838 C143.699877,54.0117958 146.430575,56.1346042 147.528979,57.9416034 C148.627383,59.7486026 149.379545,61.0729 147.528976,63.5309067 C145.678408,65.9889133 141.623858,64.6041858 139.41376,63.5309055 C137.203662,62.4576252 118.162584,52.7443306 112.172012,49.819046 C106.181441,46.8937614 93.3396912,40.5450211 93.3396912,40.5450211 L93.3396912,40.5450211 Z" id="Path-2" fill="#FFFFFF" sketch:type="MSShapeGroup"></path>
    </g>
</svg>